<svg width="350" height="95" viewBox="0 0 350 95" fill="none" xmlns="http://www.w3.org/2000/svg">
<path d="M7.00781 13.0625L10.8164 12.5742C14.3971 13.2253 16.1875 13.8763 16.1875 14.5273C17.0339 14.918 17.8151 15.7643 18.5312 17.0664C20.224 18.3685 22.1771 21.8516 24.3906 27.5156L27.418 33.082C28.5898 37.3138 29.4688 39.4297 30.0547 39.4297C30.8359 39.4297 32.138 37.3464 33.9609 33.1797C36.1745 28.6224 39.3646 23.056 43.5312 16.4805C44.7682 16.0247 45.3867 15.5365 45.3867 15.0156C45.7773 14.1042 46.2982 13.5182 46.9492 13.2578L48.2188 13.3555C49.1953 13.0299 50.2044 12.8021 51.2461 12.6719C55.6732 13.2578 57.8867 13.9414 57.8867 14.7227V14.8203L58.082 37.6719L57.8867 44.0195C58.2122 46.6888 58.7656 53.5573 59.5469 64.625L59.3516 65.6992C59.8724 66.0247 60.6862 66.1875 61.793 66.1875C63.1602 66.3828 63.8438 67.0013 63.8438 68.043V68.6289C63.8438 72.9258 63.5833 75.0742 63.0625 75.0742H62.8672C61.8255 74.5534 60.7513 74.293 59.6445 74.293H53.8828C47.8932 74.293 44.8984 73.6745 44.8984 72.4375L45.1914 69.9961V69.6055C45.1914 69.3451 44.9635 68.8893 44.5078 68.2383V67.6523C44.5078 67.3268 45.582 66.9688 47.7305 66.5781L48.3164 65.8945L48.0234 65.3086V63.8438C48.0234 62.8672 48.349 61.2721 49 59.0586L49.3906 58.5703C48.9349 58.0495 48.707 55.3802 48.707 50.5625V44.6055L48.8047 41.6758C48.5443 40.9596 48.4141 40.0156 48.4141 38.8438V37.3789C48.4141 35.9466 48.6094 33.9609 49 31.4219C49 30.6406 49.3255 29.599 49.9766 28.2969L50.0742 27.7109C49.6185 25.4974 49.3906 23.9023 49.3906 22.9258H49.0977C47.9909 24.0326 46.2331 26.474 43.8242 30.25C41.0898 35.3932 38.6159 39.4948 36.4023 42.5547L32.4961 48.1211C32.1055 48.707 31.5521 49 30.8359 49L29.6641 48.5117C29.013 48.6419 28.5247 48.8047 28.1992 49C27.418 49 26.9622 48.2513 26.832 46.7539C26.1159 45.2565 25.1068 43.7591 23.8047 42.2617C22.763 41.0247 20.7773 37.3138 17.8477 31.1289L16.7734 29.1758L15.5039 26.9297L15.6016 26.832H16.1875C16.513 26.832 16.7734 27.2552 16.9688 28.1016L17.0664 28.2969H17.3594V27.9062C17.3594 25.9531 16.4479 24.1953 14.625 22.6328H14.332V23.1211H13.5508V23.707L13.4531 24.6836V25.6602C14.4948 39.9831 15.0156 52.2878 15.0156 62.5742C14.8854 62.8997 14.6576 63.0625 14.332 63.0625C14.0716 63.0625 13.9414 62.7044 13.9414 61.9883L13.7461 61.8906H13.5508L13.2578 63.9414C14.1042 64.3971 14.5273 64.9505 14.5273 65.6016L14.332 66.7734C13.2904 66.7734 12.7695 66.5456 12.7695 66.0898H12.4766L12.1836 66.5781V67.0664C12.1836 67.3268 13.4857 67.75 16.0898 68.3359H16.4805C16.9362 68.3359 17.4245 68.2383 17.9453 68.043C20.6146 68.5638 21.9492 69.0521 21.9492 69.5078V69.8984L21.3633 69.9961C20.9076 69.9961 20.224 69.638 19.3125 68.9219H18.8242C17.2617 69.1172 16.4805 69.3776 16.4805 69.7031C16.5456 69.9635 16.7734 70.0938 17.1641 70.0938H18.5312C20.4844 70.2891 21.4609 70.6471 21.4609 71.168L21.6562 72.1445V72.7305C21.6562 73.5768 20.9727 74.0651 19.6055 74.1953C18.6289 73.7396 17.6198 73.5117 16.5781 73.5117V73.6094C16.5781 73.8047 16.9036 73.9023 17.5547 73.9023C18.401 74.0977 18.8242 74.293 18.8242 74.4883L17.75 74.5859C15.7969 74.5859 11.8906 74.2279 6.03125 73.5117L3.58984 74.1953C2.41797 73.9349 1.83203 73.4466 1.83203 72.7305V72.1445C1.05078 72.1445 0.529948 71.3307 0.269531 69.7031L0.171875 69.5078V69.0195C0.888021 67.7174 2.1901 67.0664 4.07812 67.0664C5.70573 66.6758 6.51953 66.3828 6.51953 66.1875V66.0898L4.85938 20.875L5.05469 16.6758L4.66406 15.1133C4.66406 13.7461 5.44531 13.0625 7.00781 13.0625ZM13.9414 19.0195C14.7227 20.4518 15.9922 22.1445 17.75 24.0977L21.3633 31.3242H21.6562C21.6562 30.2174 20.3867 26.9297 17.8477 21.4609C17.8477 21.0052 17.1966 20.1914 15.8945 19.0195L15.6992 18.4336H15.1133C14.332 18.4987 13.9414 18.694 13.9414 19.0195ZM12.2812 49.6836C12.151 50.0742 12.0859 50.4974 12.0859 50.9531V56.4219L12.1836 61.5977L12.2812 61.793H12.4766C13.1276 61.793 13.5508 61.3372 13.7461 60.4258V59.8398C13.4857 59.8398 13.2904 59.4818 13.1602 58.7656L13.2578 57.0078V56.9102C13.2578 55.3477 13.0951 54.1758 12.7695 53.3945L13.0625 52.0273C12.9974 50.5951 12.737 49.8138 12.2812 49.6836ZM36.8906 33.375L37.0859 33.5703C37.6068 33.2448 38.2904 32.1055 39.1367 30.1523C39.7227 29.5664 40.2435 28.4271 40.6992 26.7344V26.5391L40.3086 26.3438C39.3971 26.3438 38.2578 28.6875 36.8906 33.375ZM55.6406 33.375C55.7708 37.6068 56.0638 39.8203 56.5195 40.0156L56.7148 39.8203V36.6953C56.7148 34.2214 56.6172 32.3659 56.4219 31.1289H56.1289C55.8034 31.1289 55.6406 31.8776 55.6406 33.375ZM11.8906 37.6719C12.0208 41.1224 12.2487 42.8477 12.5742 42.8477H12.7695V41.5781C12.7695 39.5599 12.7044 37.5091 12.5742 35.4258H12.4766C12.2161 35.4258 12.0208 36.1745 11.8906 37.6719ZM10.4258 22.9258H9.9375L9.83984 23.5117V26.9297C9.83984 28.1016 10.0026 28.6875 10.3281 28.6875C10.6536 28.6875 10.8164 27.8411 10.8164 26.1484C10.8164 24.7812 10.6862 23.707 10.4258 22.9258ZM56.7148 58.5703C56.3242 58.9609 56.1289 59.7096 56.1289 60.8164V62.2812L56.5195 62.8672H57.1055C57.3008 62.8672 57.431 62.5417 57.4961 61.8906C57.2357 59.6771 56.9753 58.5703 56.7148 58.5703ZM8.17969 53.2969L8.27734 53.3945C8.86328 53.3945 9.15625 52.418 9.15625 50.4648V47.3398L9.05859 46.7539C8.73307 46.7539 8.4401 48.9349 8.17969 53.2969ZM6.71484 17.8477L6.61719 17.9453V18.043C6.8776 21.0378 7.17057 22.5352 7.49609 22.5352C7.75651 22.0794 7.88672 21.4935 7.88672 20.7773V19.9961C7.88672 18.6289 7.49609 17.9128 6.71484 17.8477ZM1.83203 68.2383L1.44141 68.5312V69.0195C1.44141 69.4753 1.83203 70.0286 2.61328 70.6797H2.80859C3.00391 70.6797 3.13411 70.4518 3.19922 69.9961C3.13411 68.8242 2.9388 68.2383 2.61328 68.2383H1.83203ZM53.4922 57.0078H53.1016C52.6458 58.1797 52.418 59.2214 52.418 60.1328C52.6133 60.9141 52.8411 61.3047 53.1016 61.3047H53.2969L53.4922 57.2031V57.0078ZM9.15625 16.6758H9.05859V17.2617C9.51432 19.6706 9.97005 20.875 10.4258 20.875H10.7188V20.4844L10.0352 18.8242C10.0352 17.8477 9.74219 17.1315 9.15625 16.6758ZM8.27734 60.4258V61.9883L8.66797 62.1836H8.86328L9.15625 60.0352L9.05859 59.3516H8.86328C8.60286 59.3516 8.40755 59.7096 8.27734 60.4258ZM9.74219 72.6328L9.15625 72.9258C9.61198 73.1862 10.1654 73.3164 10.8164 73.3164H11.1094L12.0859 73.1211V72.7305L9.74219 72.6328ZM47.2422 16.9688L47.3398 17.0664C47.5352 17.0664 47.9909 16.6107 48.707 15.6992V15.1133H48.4141C47.8932 15.4388 47.5026 16.0573 47.2422 16.9688ZM8.86328 43.4336H8.66797V44.3125V44.4102C8.66797 45.3867 8.79818 45.875 9.05859 45.875L9.35156 44.8984C9.22135 43.9219 9.05859 43.4336 8.86328 43.4336ZM47.1445 69.3125L46.8516 69.7031V70.0938L47.0469 70.2891L48.4141 69.9961V69.7031C48.349 69.4427 48.1211 69.3125 47.7305 69.3125H47.1445ZM7.69141 31.3242H7.30078V33.7656L7.59375 33.9609H7.69141L7.88672 32.3984V32.1055L7.69141 31.3242ZM32.2031 41.6758H31.9102C31.5195 42.2617 31.3242 42.7174 31.3242 43.043V43.2383H31.6172C31.9427 43.2383 32.138 42.8151 32.2031 41.9688V41.6758ZM13.5508 73.1211H12.8672V73.3164L14.0391 73.6094H15.6016V73.3164L13.5508 73.1211ZM11.6953 15.6016L11.1094 15.6992V15.9922C11.1094 16.1224 11.3698 16.2526 11.8906 16.3828C12.2812 16.2526 12.4766 16.1224 12.4766 15.9922V15.7969L12.1836 15.6016H11.6953ZM46.0703 19.0195H46.2656H46.3633C46.7539 18.5638 46.9492 18.1732 46.9492 17.8477V17.6523H46.8516C46.3307 17.9779 46.0703 18.4336 46.0703 19.0195ZM47.7305 72.1445L47.0469 72.3398V72.6328L47.3398 72.7305H48.4141V72.6328C48.2839 72.3073 48.056 72.1445 47.7305 72.1445ZM57.1055 63.8438H56.2266V64.0391L56.7148 64.625H56.9102L57.3984 64.2344V64.0391L57.1055 63.8438ZM15.0156 16.3828V16.4805H16.0898L16.1875 16.3828V16.1875L16.0898 15.9922C15.4388 15.9922 15.0807 16.1224 15.0156 16.3828ZM52.418 31.4219V31.7148L52.6133 32.0078C52.8737 31.9427 53.0039 31.7148 53.0039 31.3242V30.7383H52.8086C52.5482 30.8034 52.418 31.0312 52.418 31.4219ZM12.0859 46.0703V46.4609L12.1836 47.7305H12.4766V47.0469C12.4766 46.3958 12.3464 46.0703 12.0859 46.0703ZM13.1602 64.8203L12.8672 65.0156L13.1602 65.3086H13.5508L13.7461 65.0156L13.5508 64.8203H13.1602ZM50.4648 63.8438H50.1719L50.0742 64.4297V64.625H50.3672L50.4648 64.332V63.8438ZM54.3711 64.918L53.9805 65.3086L54.1758 65.6016H54.7617V65.3086L54.3711 64.918ZM52.418 34.1562H52.2227V34.5469L52.418 35.1328H52.6133V34.4492L52.418 34.1562ZM52.8086 29.6641H53.0039C53.1992 29.5339 53.2969 29.2409 53.2969 28.7852C52.9714 28.9154 52.8086 29.2083 52.8086 29.6641ZM53.7852 52.3203H53.4922L53.3945 52.6133L53.7852 52.9062L53.9805 52.6133V52.5156L53.7852 52.3203ZM53.6875 62.8672H53.1016V63.2578H53.3945L53.6875 62.9648V62.8672ZM3.19922 72.0469H2.80859V72.3398L3.00391 72.6328L3.19922 72.4375H3.29688L3.19922 72.0469ZM6.51953 15.6992H6.22656V15.9922L6.42188 16.1875H6.51953V15.6992ZM8.17969 64.2344H7.98438V64.7227H8.27734V64.4297L8.17969 64.2344ZM156.129 28.4922C158.668 28.4922 160.816 30.2826 162.574 33.8633C162.9 33.8633 163.355 34.2865 163.941 35.1328L165.211 42.3594C164.755 43.1406 163.03 43.5312 160.035 43.5312H159.059C156.65 43.1406 155.445 42.3268 155.445 41.0898C155.445 40.1784 154.697 38.9089 153.199 37.2812C153.004 36.9557 151.604 36.793 149 36.793C146.526 36.793 143.531 37.444 140.016 38.7461C137.542 41.3503 135.914 43.3685 135.133 44.8008C135.589 55.9336 135.751 62.8997 135.621 65.6992C135.621 66.2852 136.012 66.5781 136.793 66.5781H139.137C140.178 66.6432 140.699 66.8385 140.699 67.1641V67.2617L141.09 68.5312L140.895 74L140.309 74.7812L135.719 75.2695H135.328L133.375 75.8555C125.888 75.5951 122.145 75.3021 122.145 74.9766C120.842 74.9766 120.191 74.3906 120.191 73.2188C120.061 72.0469 119.996 70.8424 119.996 69.6055C119.996 68.3685 121.266 67.5547 123.805 67.1641C123.805 66.6432 124.684 66.3828 126.441 66.3828L126.734 66.2852V66.0898L126.148 39.332C126.148 37.7044 125.725 36.8906 124.879 36.8906H124.293C123.512 36.8906 122.21 37.2487 120.387 37.9648L120.191 37.7695V37.5742C120.191 37.444 120.452 37.2812 120.973 37.0859V36.8906C120.322 36.8906 119.996 35.0677 119.996 31.4219C119.866 31.4219 119.768 30.8359 119.703 29.6641C122.307 27.6458 125.042 26.6367 127.906 26.6367H130.348C131.324 26.6367 132.984 26.9622 135.328 27.6133V27.9062C134.742 28.8177 134.449 29.4688 134.449 29.8594V30.543C139.723 28.1992 146.949 27.5156 156.129 28.4922ZM130.543 43.2383V43.7266C130.868 44.3776 131.031 45.0612 131.031 45.7773C130.966 46.0378 130.868 47.3724 130.738 49.7812L130.934 53.6875H131.031C131.227 53.6875 131.487 50.6602 131.812 44.6055C131.943 44.6055 132.008 43.9544 132.008 42.6523C131.943 42.0664 131.78 41.7734 131.52 41.7734H131.324C130.803 42.099 130.543 42.5872 130.543 43.2383ZM124.684 72.7305L123.414 72.8281V73.0234C123.414 73.349 124.358 73.5117 126.246 73.5117H129.176L129.859 73.4141C129.859 73.0885 128.134 72.8607 124.684 72.7305ZM141.578 32.6914V32.8867C142.164 32.8867 142.945 31.9427 143.922 30.0547V29.5664H143.824C142.132 30.0872 141.383 31.1289 141.578 32.6914ZM154.176 35.8164H154.664C154.99 35.7513 155.608 34.9701 156.52 33.4727V33.375C156.52 33.2448 156.389 33.1797 156.129 33.1797C155.022 33.7005 154.469 34.3841 154.469 35.2305C154.404 35.2305 154.306 35.4258 154.176 35.8164ZM131.715 38.0625H131.324L130.836 40.1133C130.836 40.4388 131.031 40.7643 131.422 41.0898H131.52C131.715 41.0898 131.878 40.6341 132.008 39.7227L131.715 38.0625ZM145.289 30.543L145.777 32.4961H146.559V30.4453L146.266 30.1523H145.973C145.517 30.2174 145.289 30.3477 145.289 30.543ZM124 71.168L123.805 71.3633L123.902 71.5586H129.273V71.2656L125.953 71.168H124ZM122.242 30.4453C122.763 30.9661 123.316 31.2266 123.902 31.2266L124 31.0312V30.3477L123.609 29.8594C122.698 29.9896 122.242 30.1849 122.242 30.4453ZM132.105 71.8516L132.398 72.1445H133.863L134.254 71.7539C134.254 71.6237 134.091 71.4935 133.766 71.3633C132.659 71.4935 132.105 71.6562 132.105 71.8516ZM160.23 33.082H159.938V33.2773C160.458 33.7982 160.914 34.0586 161.305 34.0586H161.598V33.8633C161.077 33.3424 160.621 33.082 160.23 33.082ZM126.734 28.4922H126.441V28.8828L127.027 29.5664H127.906V29.3711L126.734 28.4922ZM123.805 34.2539V34.4492H124.098C124.814 34.4492 125.204 34.319 125.27 34.0586L125.074 33.7656H124.879C124.293 33.7656 123.935 33.9284 123.805 34.2539ZM148.805 29.6641L147.633 29.7617V29.8594L147.828 30.1523H148.805C149.26 30.1523 149.521 30.0221 149.586 29.7617L149.391 29.6641H148.805ZM133.375 61.1094L132.984 61.4023V62.1836H133.375L133.766 61.8906V61.3047L133.57 61.1094H133.375ZM121.656 71.7539L121.266 71.3633L121.07 71.7539V72.1445L121.266 72.4375H121.656V71.7539ZM135.328 34.8398L134.938 34.9375V35.2305L135.328 35.5234H135.621L135.914 35.2305V34.9375L135.328 34.8398ZM150.758 29.5664V29.7617H151.441L151.832 29.4688L151.539 29.1758C151.018 29.306 150.758 29.4362 150.758 29.5664ZM157.203 29.5664L157.008 29.7617V29.8594L157.203 30.1523H157.594L157.789 29.8594V29.7617L157.594 29.5664H157.203ZM133.473 28.5898L132.984 28.7852V29.1758H133.473L133.766 28.7852L133.473 28.5898ZM133.18 30.3477L132.789 30.6406V30.8359L132.984 31.0312L133.473 30.6406V30.3477H133.18ZM156.91 38.4531V38.6484H157.105L157.496 38.3555V38.0625H157.398C157.073 38.2578 156.91 38.388 156.91 38.4531ZM153.59 29.8594L153.199 30.1523V30.25H153.688L153.883 30.0547V29.8594H153.59ZM133.375 63.2578H133.18V63.6484H133.375V63.2578ZM324.879 24.9766C327.613 24.9766 330.934 26.1484 334.84 28.4922C338.16 30.9661 339.82 32.6589 339.82 33.5703C342.424 39.0391 343.727 42.3268 343.727 43.4336L343.824 44.2148C342.848 46.4935 342.359 48.056 342.359 48.9023L341.773 49H333.473C332.691 49 331.747 49.0977 330.641 49.293C321.266 48.5117 314.69 48.1211 310.914 48.1211H308.863C308.082 49.293 307.691 50.1393 307.691 50.6602C308.147 51.3763 308.375 52.5156 308.375 54.0781C308.375 56.5521 308.766 58.0169 309.547 58.4727L309.645 58.9609V59.0586L309.059 58.7656V59.0586L309.938 60.0352C309.938 60.8815 310.523 61.9557 311.695 63.2578C313.844 67.0339 316.188 69.3776 318.727 70.2891C320.875 71.0052 323.316 71.3633 326.051 71.3633C326.507 71.3633 327.451 70.9401 328.883 70.0938C330.055 69.8333 332.529 67.7174 336.305 63.7461V63.4531C336.305 63.3229 335.849 63.1927 334.938 63.0625L334.742 62.5742C336.24 59.7096 338.03 57.8216 340.113 56.9102C340.699 57.4961 341.904 58.4076 343.727 59.6445C345.159 61.8581 347.079 64.4622 349.488 67.457V67.8477C347.405 70.582 345.908 71.9492 344.996 71.9492H344.605C344.605 70.5169 343.727 69.7031 341.969 69.5078C341.643 69.5078 340.211 70.582 337.672 72.7305C336.174 73.9023 333.603 75.0091 329.957 76.0508C325.725 76.8971 322.73 77.3203 320.973 77.3203L315.406 75.3672C312.281 75.3672 309.417 73.6745 306.812 70.2891C305.706 69.1172 304.794 67.7174 304.078 66.0898C304.078 65.569 303.362 62.8672 301.93 57.9844C301.474 56.0964 301.246 54.2734 301.246 52.5156V52.418C301.246 43.7591 303.85 36.1745 309.059 29.6641C309.71 28.0365 311.207 26.832 313.551 26.0508C315.113 25.5951 317.001 25.237 319.215 24.9766C319.801 24.7161 321.689 24.7161 324.879 24.9766ZM315.895 27.0273V27.125H316.09C317.132 27.125 319.085 26.7669 321.949 26.0508C322.535 25.9857 322.828 25.8229 322.828 25.5625L322.535 25.2695H322.438C320.549 25.2695 318.434 25.7904 316.09 26.832L315.895 27.0273ZM311.988 28.6875V28.7852L312.281 28.9805H312.379C313.681 28.6549 314.332 28.3294 314.332 28.0039V27.418L313.941 27.0273H313.746C312.574 27.418 311.988 27.9714 311.988 28.6875ZM327.027 27.7109H324.098V27.9062C324.098 28.1667 325.432 28.362 328.102 28.4922H328.199V28.1016C328.199 27.9714 327.809 27.8411 327.027 27.7109ZM320.094 29.1758V29.2734C320.094 29.5339 321.428 29.8594 324.098 30.25L324.293 30.1523V29.7617C323.772 29.0456 322.893 28.6875 321.656 28.6875H321.363C320.517 28.7526 320.094 28.9154 320.094 29.1758ZM326.051 29.7617V29.8594C329.762 32.0078 331.747 33.082 332.008 33.082H332.105L333.082 32.6914L333.668 32.8867L333.766 32.6914V32.5938C333.505 32.3984 332.952 32.2031 332.105 32.0078L330.152 31.1289C329.632 30.0221 328.59 29.4688 327.027 29.4688H326.734C326.279 29.5339 326.051 29.6315 326.051 29.7617ZM314.43 32.5938C315.081 32.0729 316.383 31.5195 318.336 30.9336V30.7383L318.238 30.543H317.262C315.374 31.0638 314.43 31.7474 314.43 32.5938ZM309.254 39.0391V39.332C309.254 40.0482 315.178 40.862 327.027 41.7734L328.004 42.0664L329.273 41.9688C331.878 42.8151 333.635 43.2383 334.547 43.2383C334.547 43.4336 334.742 43.5964 335.133 43.7266C335.523 43.1406 335.719 42.5872 335.719 42.0664V40.2109C335.719 39.3646 334.091 37.4766 330.836 34.5469C329.339 33.0495 327.646 32.2031 325.758 32.0078L322.438 31.4219C317.034 32.5286 313.486 33.8633 311.793 35.4258C311.077 36.793 310.23 37.9974 309.254 39.0391ZM310.328 33.1797V33.375H310.523C311.37 33.1797 311.793 32.9518 311.793 32.6914V32.5938H311.305C310.979 32.5938 310.654 32.7891 310.328 33.1797ZM333.668 34.5469C333.798 35.0677 334.091 35.3281 334.547 35.3281H334.742L334.938 35.0352V34.4492L334.547 33.9609C333.961 33.9609 333.668 34.1562 333.668 34.5469ZM308.473 35.0352L308.277 35.3281V35.4258H308.473L308.863 35.1328V35.0352H308.473ZM336.109 35.8164H335.719C336.435 37.9648 336.956 39.1367 337.281 39.332H337.672L337.965 39.1367C337.444 37.0534 336.891 36.0117 336.305 36.0117L336.109 35.8164ZM309.352 37.5742C309.742 37.5091 309.938 37.2487 309.938 36.793V36.6953C309.547 36.8255 309.352 37.1185 309.352 37.5742ZM339.43 40.2109L339.137 40.4062V41.0898L339.43 41.4805C339.69 41.4154 339.82 41.1875 339.82 40.7969V40.4062L339.723 40.2109H339.43ZM308.277 41.5781V41.9688L308.473 42.1641H308.668C309.124 41.9688 309.514 41.6107 309.84 41.0898V40.7969H309.352C308.961 40.7969 308.603 41.0573 308.277 41.5781ZM304.273 40.9922C303.753 41.513 303.297 42.8151 302.906 44.8984H303.102C303.492 44.8984 304.078 43.7591 304.859 41.4805C304.729 41.1549 304.534 40.9922 304.273 40.9922ZM314.234 42.1641V42.457C315.471 43.3034 317.717 43.7266 320.973 43.7266H321.852L323.121 43.6289V43.2383C320.452 42.6523 317.49 42.2943 314.234 42.1641ZM332.105 44.7031H331.812V44.9961H332.105V44.7031ZM313.258 45.4844V45.6797C314.56 46.0052 318.01 46.3307 323.609 46.6562V46.7539V46.8516L321.559 47.1445C321.559 47.3398 322.405 47.4375 324.098 47.4375C326.832 47.4375 328.199 47.3073 328.199 47.0469C328.199 46.3958 323.219 45.875 313.258 45.4844ZM303.395 46.168H302.906V46.7539C302.906 47.1445 303.004 47.3398 303.199 47.3398C303.525 47.3398 303.72 47.0143 303.785 46.3633L303.395 46.168ZM311.305 46.3633L310.816 46.4609V47.0469H311.305V46.6562V46.4609V46.3633ZM308.18 47.1445V47.2422H308.277L309.938 47.0469V46.8516L309.645 46.4609H309.352C308.766 46.4609 308.375 46.6888 308.18 47.1445ZM331.91 47.3398C331.91 47.6003 332.496 47.7305 333.668 47.7305L334.547 47.6328V47.4375C334.547 47.1771 333.928 47.0469 332.691 47.0469C332.171 47.1771 331.91 47.2747 331.91 47.3398ZM302.906 49.8789V50.1719V50.2695C302.841 50.4648 302.809 50.9206 302.809 51.6367V52.0273C302.809 53.1992 303.134 54.2409 303.785 55.1523H303.883C303.883 52.0273 303.557 50.2695 302.906 49.8789ZM304.664 58.375H304.371V58.5703L304.664 58.7656H304.859V58.5703L304.664 58.375ZM305.348 60.0352L305.25 60.1328V60.3281C305.51 61.3698 305.901 61.8906 306.422 61.8906V61.793V61.5977C306.422 61.0768 306.064 60.556 305.348 60.0352ZM337.184 60.9141L337.379 61.207H337.867C338.258 61.207 338.486 61.0768 338.551 60.8164L338.16 60.4258H338.062C337.607 60.4258 337.314 60.5885 337.184 60.9141ZM334.938 66.5781L335.133 66.6758H335.23C335.947 66.6758 336.402 66.2526 336.598 65.4062V65.2109C335.882 65.2109 335.328 65.6667 334.938 66.5781ZM341.773 66.3828L341.871 66.4805H342.164C342.555 66.2201 342.75 65.862 342.75 65.4062H342.457C342.001 65.6667 341.773 65.9922 341.773 66.3828ZM345.191 65.4062H345.094V65.6016C345.289 66.3828 345.582 66.7734 345.973 66.7734H346.07L346.266 66.5781V66.4805C346.135 65.7643 345.777 65.4062 345.191 65.4062ZM339.527 67.457L339.82 67.6523C340.797 67.3268 341.285 66.9036 341.285 66.3828V66.1875H341.188C340.276 66.1875 339.723 66.6107 339.527 67.457ZM331.91 69.6055H332.105C332.626 69.4102 332.919 69.0846 332.984 68.6289L332.887 68.5312C332.236 68.9219 331.91 69.2799 331.91 69.6055ZM337.672 70.0938H338.062C338.714 69.5078 339.039 69.0846 339.039 68.8242H338.941C338.095 69.0846 337.672 69.5078 337.672 70.0938ZM309.938 70.9727H309.645V71.3633C309.775 71.6888 310.328 72.0469 311.305 72.4375L311.695 72.7305C310.979 71.6237 310.393 71.0378 309.938 70.9727ZM316.773 71.3633H316.676V71.4609C316.676 71.7214 317.359 72.0143 318.727 72.3398L318.824 72.2422V72.0469C317.978 71.5911 317.294 71.3633 316.773 71.3633ZM322.535 72.4375H322.242V72.7305H322.535V72.4375ZM332.691 73.9023C333.342 73.9023 333.863 73.4141 334.254 72.4375H333.961C333.115 72.8932 332.691 73.3815 332.691 73.9023ZM325.855 74.8789L323.805 74.6836H323.414C322.828 74.6836 322.503 74.8138 322.438 75.0742V75.2695L322.828 75.5625H324.586C326.604 75.5625 328.98 75.2044 331.715 74.4883C331.585 74.0977 331.194 73.9023 330.543 73.9023H330.055C328.492 73.9023 327.092 74.2279 325.855 74.8789Z" fill="#187A5B"/>
<path d="M79.957 28.9805L82.6914 28.7852C83.5378 32.8867 83.5052 35.0026 82.5938 35.1328C81.7474 35.1328 82.9193 38.8763 86.1094 46.3633C87.5417 49.944 88.681 52.5482 89.5273 54.1758C91.4154 58.7982 92.6523 61.1094 93.2383 61.1094C93.4336 61.1094 93.7591 61.5 94.2148 62.2812L94.3125 62.4766H95.3867C96.1029 62.4766 97.3073 59.6445 99 53.9805C105.315 42.1315 107.105 36.1745 104.371 36.1094C104.241 36.1094 104.078 36.1419 103.883 36.207C104.273 33.6029 104.371 31.3893 104.176 29.5664L104.664 29.1758C113.128 29.3711 117.359 29.6966 117.359 30.1523C117.685 30.1523 117.848 31.8125 117.848 35.1328C117.392 37.0859 116.806 38.0625 116.09 38.0625C115.374 37.9974 114.983 37.9974 114.918 38.0625C114.853 38.1276 115.016 38.2253 115.406 38.3555H114.723C112.184 42.6523 110.914 45.4518 110.914 46.7539C110.133 49.944 109.124 52.1576 107.887 53.3945C105.868 59.2539 104.306 63.2904 103.199 65.5039C102.743 66.0247 102.288 67.7174 101.832 70.582L97.6328 77.418C95.6146 81.9753 92.8477 86.3372 89.332 90.5039L84.5469 93.7266C82.5938 94.2474 81.0638 94.5078 79.957 94.5078C75.1393 94.5078 72.7305 94.0195 72.7305 93.043C72.2096 92.7174 71.7865 91.806 71.4609 90.3086C70.4844 89.332 69.2799 85.9141 67.8477 80.0547V79.8594C67.8477 79.2083 68.4987 78.8828 69.8008 78.8828C70.9076 78.8828 72.8607 78.2969 75.6602 77.125C76.5065 77.125 77.6784 80.1198 79.1758 86.1094C79.6315 87.4766 79.9896 88.1602 80.25 88.1602H81.0312C81.5521 87.9648 82.0729 87.1836 82.5938 85.8164C82.9844 85.8164 84.2865 84.1237 86.5 80.7383C87.4766 78.6549 88.5182 76.7344 89.625 74.9766L89.918 73.8047V71.8516C89.8529 70.875 89.1693 69.4102 87.8672 67.457C86.5651 65.2435 85.5234 63.1602 84.7422 61.207C81.6823 53.0039 78.1992 45.3867 74.293 38.3555C74.0326 38.0951 73.7396 37.9648 73.4141 37.9648L67.457 38.2578L67.1641 37.9648L66.9688 34.7422L66.7734 30.543L68.5312 29.7617L78.1992 28.7852L79.957 28.9805ZM107.496 31.6172L106.324 31.3242L108.57 32.3008L109.938 32.0078H110.133L111.793 32.2031V32.0078C111.793 31.7474 111.142 31.5521 109.84 31.4219H108.375C107.789 31.4219 107.496 31.487 107.496 31.6172ZM114.332 31.3242L114.137 31.5195V31.6172C114.267 31.8776 114.462 32.0404 114.723 32.1055L116.48 31.9102V31.6172C116.415 31.4219 116.188 31.3242 115.797 31.3242H114.332ZM68.1406 35.1328L67.9453 35.2305V36.0117L68.4336 36.4023H69.7031C71.0703 36.3372 71.7539 36.1419 71.7539 35.8164C71.7539 35.556 70.5495 35.3281 68.1406 35.1328ZM77.125 36.207L76.832 36.4023C76.832 37.1836 77.2878 38.1927 78.1992 39.4297H78.2969V38.3555C78.2969 37.2487 78.0039 36.5326 77.418 36.207H77.125ZM112.965 34.7422V34.9375L113.355 35.3281C115.634 34.8073 116.773 34.3841 116.773 34.0586L116.48 33.7656H116.09C114.202 33.9609 113.16 34.2865 112.965 34.7422ZM111.598 34.2539L111.305 34.4492V34.9375C111.5 35.3281 111.891 35.5234 112.477 35.5234L112.574 35.4258V34.9375L111.891 34.2539H111.598ZM111.207 37.5742H110.719V38.0625H111.207V37.5742ZM110.816 40.4062H110.523C107.984 45.3542 106.585 47.9258 106.324 48.1211V48.8047C106.324 49.0651 106.617 49.5208 107.203 50.1719L106.52 52.125H106.715C107.626 50.7578 108.928 47.3724 110.621 41.9688L110.816 40.4062ZM96.5586 67.9453V68.4336H97.0469C98.0885 68.4336 99.4232 65.3086 101.051 59.0586C101.051 58.9284 101.376 58.5703 102.027 57.9844C102.027 57.4635 102.223 57.1055 102.613 56.9102V56.8125L102.32 56.0312C102.646 55.3802 102.646 55.3477 102.32 55.9336C102.19 56.194 101.93 56.6823 101.539 57.3984C100.562 59.1562 99.6836 60.7513 98.9023 62.1836C98.6419 63.0951 97.8607 65.0156 96.5586 67.9453ZM86.0117 53.1992H85.9141V53.3945C87.2812 57.1706 88.0951 59.0586 88.3555 59.0586H88.4531V58.8633C87.2161 55.0872 86.4023 53.1992 86.0117 53.1992ZM103.102 61.8906H103.199C104.241 61.8906 105.087 59.4167 105.738 54.4688H105.641C105.38 54.4688 105.055 55.2826 104.664 56.9102C103.753 59.1237 103.232 60.7839 103.102 61.8906ZM85.5234 57.1055L85.2305 57.3984V57.6914L85.5234 57.8867L85.9141 57.6914V57.5938L85.5234 57.1055ZM88.4531 59.5469L88.1602 59.8398V60.0352L88.7461 60.5234C88.9414 60.5234 89.0391 60.4258 89.0391 60.2305C88.9089 59.9701 88.7461 59.7422 88.5508 59.5469H88.4531ZM95.582 74.7812V74.9766H96.0703C96.526 74.9766 97.4375 73.349 98.8047 70.0938V69.9961C97.8932 69.9961 96.819 71.5911 95.582 74.7812ZM91.8711 71.7539V71.8516H91.9688C92.4896 71.8516 92.75 71.6237 92.75 71.168V70.582H92.3594C92.0339 70.7122 91.8711 71.1029 91.8711 71.7539ZM94.7031 78.2969L93.9219 79.4688L94.0195 79.7617C94.6055 79.306 94.8984 78.8177 94.8984 78.2969H94.7031ZM72.4375 80.25L72.1445 80.543C72.6654 81.2591 72.9583 81.9102 73.0234 82.4961L73.8047 83.2773L74.1953 83.1797V82.6914C74.1953 81.7148 73.7721 80.901 72.9258 80.25H72.4375ZM85.2305 86.5V86.5977C85.8815 86.5977 86.5326 85.7839 87.1836 84.1562H86.9883C86.207 84.5469 85.6211 85.3281 85.2305 86.5ZM74.3906 85.0352H74.1953V85.3281C74.1953 86.0443 74.4557 86.5651 74.9766 86.8906L75.2695 86.6953V86.5C75.2695 85.9792 74.9766 85.4909 74.3906 85.0352ZM87.5742 88.5508L86.6953 89.7227L86.8906 89.918H86.9883C88.7461 89.0065 89.7878 88.0951 90.1133 87.1836C89.8529 86.9232 89.5924 86.793 89.332 86.793H88.9414C88.3555 86.793 87.8997 87.3789 87.5742 88.5508ZM77.0273 88.7461H76.4414V89.0391L76.832 89.5273H77.7109L78.0039 89.332C78.0039 89.0065 77.6784 88.8112 77.0273 88.7461ZM81.7148 90.6016L83.4727 91.8711H83.8633C84.1237 91.806 84.2539 91.5456 84.2539 91.0898V90.6016C84.1888 90.4062 83.9284 90.3086 83.4727 90.3086H82.5938C82.0078 90.3086 81.7148 90.4062 81.7148 90.6016ZM78.2969 91.4805L78.1992 91.7734C78.3945 92.2292 78.8177 92.457 79.4688 92.457H80.8359L81.0312 92.1641V92.0664C81.0312 91.7409 80.6406 91.5456 79.8594 91.4805H78.2969ZM210.328 21.0703L222.438 20.7773C223.479 20.7773 225.66 21.2331 228.98 22.1445C232.757 25.7253 235.003 28.5247 235.719 30.543C237.151 32.0404 238.29 35.0026 239.137 39.4297C240.178 40.4714 240.699 42.7826 240.699 46.3633L240.797 48.8047L240.406 58.4727C240.406 60.4258 241.611 62.8346 244.02 65.6992C246.233 67.8477 247.665 68.9219 248.316 68.9219V69.1172C248.316 69.8984 247.177 71.1354 244.898 72.8281C243.206 74.5208 242.132 75.3672 241.676 75.3672H241.578C240.536 75.237 237.9 73.3164 233.668 69.6055C225.986 72.6003 222.112 74.1302 222.047 74.1953C219.508 74.9766 216.676 75.3672 213.551 75.3672H213.062C209.547 74.7812 206.552 73.4141 204.078 71.2656C203.622 70.875 202.678 69.2474 201.246 66.3828C200.074 64.9505 199.488 63.1927 199.488 61.1094V58.2773C199.488 56.4544 199.977 54.7617 200.953 53.1992C201.799 50.5299 203.264 47.9909 205.348 45.582C206.389 44.3451 207.431 43.5638 208.473 43.2383C211.858 41.4154 215.211 40.5039 218.531 40.5039L222.926 40.4062H223.512C225.986 40.4062 227.743 40.7643 228.785 41.4805H229.371C229.697 41.4805 229.859 41.3503 229.859 41.0898C229.143 38.0299 227.971 35.1003 226.344 32.3008C224.911 29.8919 222.242 28.6875 218.336 28.6875L214.332 28.1016C210.882 28.8177 209.156 29.5339 209.156 30.25C207.789 32.0078 206.975 34.1888 206.715 36.793C206.585 37.1185 205.413 37.2812 203.199 37.2812L202.613 37.4766C202.353 37.4766 202.027 38.0299 201.637 39.1367C199.814 38.8763 198.902 38.4857 198.902 37.9648C199.033 37.5742 199.26 35.2305 199.586 30.9336C200.628 27.9388 203.102 25.1719 207.008 22.6328C208.831 21.5911 209.938 21.0703 210.328 21.0703ZM221.266 22.7305L221.07 23.0234L221.363 23.4141H221.949L222.047 23.2188L221.754 22.7305H221.266ZM228.688 23.5117H228.492V23.707C229.013 24.2279 229.469 24.4883 229.859 24.4883H229.957V24.293C229.436 23.7721 229.013 23.5117 228.688 23.5117ZM213.062 24V24.293C213.128 24.4883 213.453 24.5859 214.039 24.5859C214.625 24.5859 215.439 24.3906 216.48 24V23.6094H216.09C214.658 23.6094 213.648 23.7396 213.062 24ZM204.273 27.125V27.3203H204.371C204.957 27.3203 205.836 26.7018 207.008 25.4648V25.1719H206.91C206.259 25.1719 205.38 25.8229 204.273 27.125ZM217.848 26.4414L217.359 26.832L217.652 27.3203H218.922L219.215 27.0273L218.629 26.4414H217.848ZM203.492 34.3516L203.199 34.5469V36.0117H203.297C203.557 35.9466 203.688 35.7188 203.688 35.3281V34.5469L203.492 34.3516ZM238.941 42.1641H238.844V42.3594C238.974 42.8802 239.104 43.1406 239.234 43.1406L239.332 42.6523C239.202 42.3268 239.072 42.1641 238.941 42.1641ZM236.695 45.582L236.402 45.7773V46.0703C236.663 47.0469 236.923 47.5352 237.184 47.5352H237.379C237.379 46.6888 237.184 46.0378 236.793 45.582H236.695ZM208.082 46.168L207.008 46.6562V47.1445H207.203C207.659 47.1445 207.984 46.8841 208.18 46.3633V46.168H208.082ZM207.008 55.4453C207.464 59.3516 208.017 61.3047 208.668 61.3047L209.645 62.5742V62.6719L208.766 62.5742V62.8672C210.003 64.5599 212.542 66.1224 216.383 67.5547C216.839 67.8151 217.49 68.0104 218.336 68.1406C219.508 68.1406 224 66.2201 231.812 62.3789C232.333 62.0534 232.594 61.6953 232.594 61.3047V60.8164C232.008 58.1471 231.52 55.0221 231.129 51.4414L230.934 51.3438C230.934 50.6276 230.217 50.0417 228.785 49.5859C223.967 48.2188 220.68 47.5352 218.922 47.5352C213.974 48.6419 210.589 50.3021 208.766 52.5156C207.594 53.6875 207.008 54.6641 207.008 55.4453ZM236.402 49.0977L236.109 48.9023V49.1953H236.402V49.0977ZM236.793 50.9531H236.207V51.3438L236.5 51.6367L236.793 51.3438V50.9531ZM233.668 53.3945L233.375 53.6875L233.668 54.0781L234.059 53.9805V53.6875L233.766 53.3945H233.668ZM237.184 53.6875H236.891V53.7852C237.021 56.2591 237.281 57.4961 237.672 57.4961L237.867 57.3008V57.1055C237.867 55.7383 237.639 54.599 237.184 53.6875ZM233.375 56.8125L233.277 56.9102V57.4961L233.57 57.8867H233.668L234.059 57.4961V56.9102L233.766 56.8125H233.375ZM241.676 65.9922H241.383V66.5781C241.643 67.4245 241.936 67.8477 242.262 67.8477H242.555V67.5547C242.294 66.513 242.001 65.9922 241.676 65.9922ZM205.738 66.2852L205.543 66.4805V66.5781L205.738 66.7734H206.227V66.5781L205.934 66.2852H205.738ZM238.648 67.5547L238.355 67.8477C238.551 68.3034 238.811 68.5964 239.137 68.7266H239.234L239.625 68.3359V68.1406L239.137 67.5547H238.648ZM224.488 68.9219V69.1172H224.879C225.79 69.1172 226.995 68.7266 228.492 67.9453V67.8477H228.102C225.888 68.1081 224.684 68.4661 224.488 68.9219ZM240.797 69.2148L240.602 69.6055V69.8008L240.992 70.1914H241.383L241.676 69.9961V69.8008L241.188 69.2148H240.797ZM216.676 69.9961L216.383 70.2891C216.513 70.6146 216.773 70.7773 217.164 70.7773C217.88 70.6471 218.238 70.4844 218.238 70.2891V70.1914L217.945 69.9961H216.676ZM206.031 71.3633L205.738 71.7539C205.999 72.3398 207.626 73.0885 210.621 74C211.598 74.4557 212.9 74.6836 214.527 74.6836V74.5859C214.527 74.3906 213.29 74.0326 210.816 73.5117C209.384 73.1211 207.887 72.4049 206.324 71.3633H206.031Z" fill="#9BDFAC"/>
<path d="M181.715 5.05469L185.035 4.56641C187.314 4.56641 189.104 5.73828 190.406 8.08203L191.09 11.207C190.96 12.444 190.243 14.0716 188.941 16.0898C188.095 16.9362 186.793 17.3594 185.035 17.3594C180.934 17.3594 178.395 16.7409 177.418 15.5039C176.441 14.2018 175.986 12.3789 176.051 10.0352C175.79 10.0352 175.66 9.97005 175.66 9.83984V9.64453C177.613 6.58464 179.632 5.05469 181.715 5.05469ZM179.762 7.49609V7.59375C181.975 7.33333 183.082 7.04036 183.082 6.71484L182.594 6.51953C180.706 6.84505 179.762 7.17057 179.762 7.49609ZM181.422 10.3281H181.52L182.105 10.4258H182.301C183.017 10.4258 183.473 10.1654 183.668 9.64453L183.57 9.44922H182.398C181.878 9.44922 181.552 9.74219 181.422 10.3281ZM188.453 9.44922L188.16 9.9375V10.3281H188.258L188.551 9.9375V9.44922H188.453ZM186.109 12.6719V12.9648H186.5C186.956 12.9648 187.314 12.737 187.574 12.2812V11.9883H187.379C186.923 11.9883 186.5 12.2161 186.109 12.6719ZM183.961 14.4297L183.668 14.7227V14.918H185.426L185.719 14.7227L185.426 14.4297H183.961ZM171.559 23.707H171.852C172.372 24.1628 173.023 24.3906 173.805 24.3906L175.074 23.8047C183.928 23.8047 188.355 24.0651 188.355 24.5859L188.453 25.2695V26.9297C189.039 28.2318 189.332 29.4688 189.332 30.6406V32.2031C188.551 42.8151 188.03 51.4089 187.77 57.9844C187.639 58.375 187.509 59.0586 187.379 60.0352C187.444 60.2956 187.737 60.4258 188.258 60.4258H188.551C192.066 60.4258 193.824 60.849 193.824 61.6953L193.727 61.8906V62.4766C194.508 64.0391 194.898 66.513 194.898 69.8984L195.289 73.8047L194.996 74L190.699 74.1953H180.934C173.642 74.1953 169.996 73.6094 169.996 72.4375C169.996 71.7214 169.801 71.0052 169.41 70.2891C169.605 69.8333 169.931 69.4753 170.387 69.2148H170.68C170.94 69.4753 171.233 69.6055 171.559 69.6055H171.754C173.642 69.6055 175.888 69.4427 178.492 69.1172V68.9219C172.893 68.5312 170.094 68.0755 170.094 67.5547L169.996 66.7734V65.6992L169.801 63.1602C169.801 62.5091 172.242 62.1836 177.125 62.1836C177.776 62.1836 178.102 60.7188 178.102 57.7891L179.273 32.1055H179.078C177.255 32.1055 176.344 31.9753 176.344 31.7148C176.344 31.6497 176.441 31.5521 176.637 31.4219C172.73 31.4219 170.777 30.9661 170.777 30.0547C170.517 29.9896 170.387 29.7292 170.387 29.2734L170.875 28.1016C170.875 27.8411 170.68 27.4831 170.289 27.0273C170.81 26.5065 171.168 25.4648 171.363 23.9023L171.559 23.707ZM173.121 25.6602V26.0508H173.609C175.302 26.0508 176.148 25.9206 176.148 25.6602L175.953 25.2695H175.66C173.967 25.2695 173.121 25.3997 173.121 25.6602ZM186.402 24.9766L186.109 25.2695L186.5 25.5625H186.695V25.2695L186.402 24.9766ZM175.27 27.0273H173.512V27.3203C173.512 27.5807 173.967 27.7109 174.879 27.7109H175.953H176.246H179.469C180.445 27.7109 180.934 27.5482 180.934 27.2227V27.125C180.934 26.7995 179.046 26.7669 175.27 27.0273ZM183.961 27.125L183.082 27.0273V27.2227C183.538 27.2227 184.091 27.5482 184.742 28.1992H184.938C185.068 28.1992 185.133 28.1016 185.133 27.9062H185.328C185.589 27.9062 185.751 28.1992 185.816 28.7852H186.012L187.379 27.8086V27.2227L185.328 27.125H183.961ZM183.57 32.5938L184.059 34.0586L183.375 35.8164C183.635 36.4023 183.863 36.6953 184.059 36.6953H184.156L184.352 36.1094V35.5234C184.352 33.1797 184.71 32.0078 185.426 32.0078L185.719 31.6172V31.2266L185.426 30.9336H184.84C183.993 30.9336 183.57 31.487 183.57 32.5938ZM180.543 41.8711L180.25 54.4688C180.315 54.9245 180.413 55.1523 180.543 55.1523C180.738 55.1523 180.868 54.8594 180.934 54.2734L180.836 52.8086C181.161 52.4831 181.52 51.181 181.91 48.9023V48.3164L181.715 46.9492C182.105 46.6237 182.301 46.3958 182.301 46.2656C182.04 45.5495 181.91 44.8333 181.91 44.1172V43.9219C182.171 43.9219 182.496 40.276 182.887 32.9844C182.691 32.4635 182.496 32.2031 182.301 32.2031C181.324 32.2031 180.738 35.4258 180.543 41.8711ZM185.328 33.2773L184.938 33.375V33.9609C184.938 34.3516 185.1 34.6445 185.426 34.8398H185.719L186.012 34.4492V33.9609C185.882 33.6354 185.654 33.4076 185.328 33.2773ZM184.84 49.1953H184.352C183.831 51.6042 183.57 53.3945 183.57 54.5664H183.668C183.993 54.5664 184.417 53.2318 184.938 50.5625V49.8789L184.84 49.1953ZM182.984 58.375V59.0586H183.18C183.505 58.9284 183.668 58.5378 183.668 57.8867V57.2031H183.375C183.245 57.2031 183.115 57.5938 182.984 58.375ZM183.18 59.8398L182.887 60.2305V60.7188H183.18L183.57 60.4258V60.1328L183.277 59.8398H183.18ZM190.992 62.1836L190.699 62.2812C191.09 62.6068 191.806 62.8021 192.848 62.8672V62.5742C192.848 62.3138 192.424 62.1836 191.578 62.1836H190.992ZM191.383 66.2852L190.211 66.5781C190.341 67.3594 190.927 67.75 191.969 67.75H192.262V67.457L192.066 67.1641C192.066 67.099 192.327 66.9036 192.848 66.5781V66.0898C192.848 65.6341 192.717 65.3737 192.457 65.3086H192.066C191.871 65.3737 191.643 65.6992 191.383 66.2852ZM172.73 65.4062L172.047 65.6016V65.6992C172.568 66.2201 174.586 66.513 178.102 66.5781H178.785C179.306 66.5781 179.632 66.4154 179.762 66.0898V65.8945C177.027 65.569 174.684 65.4062 172.73 65.4062ZM181.91 66.5781L182.301 67.0664C182.887 67.0664 183.18 66.7409 183.18 66.0898H182.691C182.301 66.0898 182.04 66.2526 181.91 66.5781ZM191.09 68.5312L190.797 68.9219V69.1172H190.992L191.285 68.7266V68.5312H191.09ZM183.57 69.1172L182.301 69.2148H180.934V69.6055L182.301 69.7031L185.133 69.5078V69.2148H184.742L183.57 69.1172ZM193.531 72.4375L193.141 72.7305V73.0234H193.727L193.824 72.7305L193.727 72.4375H193.531ZM288.258 0.367188L292.555 0.269531C295.224 0.790365 296.559 1.18099 296.559 1.44141C296.689 1.44141 296.819 2.38542 296.949 4.27344C297.665 5.11979 298.023 5.67318 298.023 5.93359C297.698 9.05859 297.405 15.4388 297.145 25.0742C297.014 25.0742 296.949 25.3997 296.949 26.0508C296.428 26.3763 296.168 26.7344 296.168 27.125V28.6875C296.168 29.9896 295.842 31.487 295.191 33.1797L295.094 34.5469C295.094 34.8073 295.452 35.0026 296.168 35.1328V35.8164C295.191 44.0846 294.703 49.4883 294.703 52.0273C294.703 55.0221 294.508 56.5195 294.117 56.5195V56.7148C294.508 56.7148 294.736 57.138 294.801 57.9844L294.703 58.668V59.0586C294.703 60.2956 294.312 63.2904 293.531 68.043V70.2891C296.786 71.0052 298.414 71.9492 298.414 73.1211L297.926 73.6094V74.4883L298.414 75.2695C297.893 76.6367 296.038 77.3203 292.848 77.3203H292.262L291.773 76.5391H290.699L288.062 77.125L284.352 77.0273C284.091 77.0273 283.798 75.3672 283.473 72.0469L283.668 68.9219C282.822 68.9219 281.487 69.638 279.664 71.0703C274.26 74.0651 269.508 75.6927 265.406 75.9531C261.63 74.9766 258.245 73.0885 255.25 70.2891C254.273 69.3125 253.264 67.7826 252.223 65.6992C251.051 64.0716 250.465 63.0951 250.465 62.7695V62.3789H250.758C251.214 62.7044 252.06 63.8112 253.297 65.6992L253.785 65.7969L253.883 65.6992V64.4297C253.883 63.1276 253.199 61.5651 251.832 59.7422H251.344C250.953 59.7422 250.725 60.3281 250.66 61.5H250.367L250.172 61.0117C250.302 58.4727 250.4 56.8125 250.465 56.0312H251.051L251.148 56.9102H251.344C251.669 56.7799 251.832 56.4544 251.832 55.9336V54.0781L251.637 53.7852C251.441 53.7852 251.344 54.0456 251.344 54.5664L250.758 55.1523C250.628 55.1523 250.53 54.9245 250.465 54.4688C250.465 49.5859 252.06 44.3776 255.25 38.8438C256.747 36.2396 258.245 34.1562 259.742 32.5938C261.826 30.7057 265.113 29.7617 269.605 29.7617H270.484C277.385 29.7617 283.017 31.5521 287.379 35.1328L288.062 35.5234H288.355C288.941 32.6589 289.527 25.3997 290.113 13.7461C290.439 13.2253 290.699 12.9648 290.895 12.9648C288.811 11.5977 287.379 10.9141 286.598 10.9141C286.012 10.9141 285.654 8.66797 285.523 4.17578C285.654 4.04557 286.174 3.94792 287.086 3.88281V3.49219C287.021 3.23177 286.76 3.10156 286.305 3.10156C285.979 2.90625 285.816 2.67839 285.816 2.41797C285.816 1.76693 286.565 1.44141 288.062 1.44141V1.05078L287.672 0.660156V0.464844L288.258 0.367188ZM288.355 4.56641L288.258 4.85938V4.95703H289.43V4.85938L289.137 4.56641H288.355ZM293.824 5.54297L293.629 5.83594V5.93359H295.094V5.64062L294.41 5.54297H293.824ZM290.797 7.39844L290.992 7.69141C292.555 7.6263 293.336 7.43099 293.336 7.10547L292.945 6.8125H291.773C291.318 6.8125 290.992 7.00781 290.797 7.39844ZM288.258 7.00781L288.062 7.30078V7.49609L288.746 7.69141C289.137 7.69141 289.365 7.5612 289.43 7.30078L289.137 7.00781H288.258ZM266.578 32.3008L266.285 32.6914V33.1797L266.578 33.375H267.066L267.555 32.9844V32.6914L267.164 32.3008H266.578ZM272.34 33.375L272.535 33.7656H276.832V33.375C276.441 32.9844 275.367 32.7565 273.609 32.6914H272.633C272.438 32.7565 272.34 32.9844 272.34 33.375ZM295.68 33.1797V32.6914H296.168V33.1797H295.68ZM259.938 35.3281V35.7188L260.133 35.8164H260.523C262.802 35.2305 263.941 34.5469 263.941 33.7656C263.876 33.5052 263.551 33.375 262.965 33.375H262.477C261.5 33.375 260.654 34.026 259.938 35.3281ZM280.934 34.3516L279.566 34.4492H279.371V34.7422C280.934 35.3932 281.943 35.7188 282.398 35.7188H282.496C282.496 35.0677 281.975 34.612 280.934 34.3516ZM290.406 34.8398H290.016C290.016 35.4909 290.146 35.8164 290.406 35.8164L290.504 35.7188V35.4258L290.406 34.8398ZM269.801 36.5977L269.605 36.793L269.801 36.8906H270.191L270.484 36.6953V36.5977H269.801ZM255.641 43.4336V43.7266H255.934C256.324 43.5964 256.747 42.8477 257.203 41.4805C259.156 38.7461 260.458 37.3789 261.109 37.3789L261.5 36.6953H260.914C260.654 36.6953 259.579 37.3464 257.691 38.6484C256.454 40.4714 255.771 42.0664 255.641 43.4336ZM266.578 37.2812L266.383 37.5742H267.359L267.652 37.3789V37.2812H266.578ZM271.656 37.7695L271.852 37.8672H272.047L274.195 37.5742V37.3789L273.512 37.2812C272.275 37.3464 271.656 37.5091 271.656 37.7695ZM276.832 37.2812L276.637 37.5742L276.93 37.8672H277.516L277.711 37.5742C277.581 37.3789 277.32 37.2812 276.93 37.2812H276.832ZM281.324 37.3789H280.934L281.324 37.7695L281.52 37.5742L281.324 37.3789ZM283.473 37.9648H282.398C282.398 38.2253 283.342 38.6159 285.23 39.1367H285.328V38.8438C284.807 38.2578 284.189 37.9648 283.473 37.9648ZM256.227 57.0078V58.4727C256.227 59.3841 257.464 62.0208 259.938 66.3828C261.76 67.3594 263.714 67.8477 265.797 67.8477C270.289 67.8477 274.651 66.7734 278.883 64.625C280.641 61.9557 282.171 60.6211 283.473 60.6211C284.189 59.9049 284.97 57.4635 285.816 53.2969C286.337 52.125 286.598 50.9206 286.598 49.6836V48.707C286.598 45.9727 286.24 44.6055 285.523 44.6055C284.026 43.2383 283.277 42.4245 283.277 42.1641L283.668 41.5781C283.668 41.3177 282.724 40.9271 280.836 40.4062L280.25 40.0156L280.348 39.8203H281.812V39.7227C281.812 39.0716 278.264 38.7135 271.168 38.6484L269.801 38.3555C264.592 38.8763 261.988 39.5599 261.988 40.4062C259.579 43.2708 258.017 46.7865 257.301 50.9531C256.585 53.4271 256.227 55.4453 256.227 57.0078ZM284.742 41.5781L284.352 41.9688V42.75L284.84 43.2383H285.133C285.393 43.1732 285.523 42.9128 285.523 42.457C285.523 42.0664 285.328 41.7734 284.938 41.5781H284.742ZM254.664 52.125C254.664 52.3203 254.762 52.418 254.957 52.418C255.413 52.418 255.738 51.7669 255.934 50.4648V49.8789H255.641C255.315 49.8789 254.99 50.6276 254.664 52.125ZM285.719 66.8711V67.457C286.109 67.457 286.305 67.75 286.305 68.3359H286.5L286.988 67.8477V67.0664C286.728 66.8711 286.598 66.5456 286.598 66.0898H286.305C285.914 66.1549 285.719 66.4154 285.719 66.8711ZM278.395 67.6523V68.043H278.492C279.143 67.7826 279.664 67.3594 280.055 66.7734V66.5781L279.859 66.3828H279.664C279.208 66.5781 278.785 67.0013 278.395 67.6523ZM268.629 68.9219V69.2148H269.801C274.098 68.9544 276.474 68.3359 276.93 67.3594V67.0664H276.637C271.624 67.9128 268.954 68.5312 268.629 68.9219ZM290.992 67.457H290.895L290.797 68.2383V69.5078L290.992 69.8008H291.188L291.383 69.5078V68.5312C291.383 67.8802 291.253 67.5221 290.992 67.457ZM256.422 68.3359H256.031V68.6289C256.031 69.0195 257.105 69.3125 259.254 69.5078V69.2148C257.757 68.6289 256.812 68.3359 256.422 68.3359ZM258.668 69.8984L258.375 70.0938C258.375 70.8099 260.296 71.526 264.137 72.2422H264.625L264.82 72.0469V71.9492C264.82 71.2331 262.965 70.5495 259.254 69.8984H258.668ZM286.305 70.2891L285.816 70.6797V70.875H286.109L286.5 70.4844V70.2891H286.305ZM271.07 71.0703V71.2656L271.363 71.4609H271.949C274.033 71.3307 275.074 71.1354 275.074 70.875L274.781 70.6797H272.926C271.689 70.6797 271.07 70.8099 271.07 71.0703ZM291.676 70.9727H291.188V71.2656L291.383 71.4609H291.871V71.2656L291.676 70.9727ZM264.527 73.9023V74.1953L264.625 74.4883H265.895C266.936 74.4883 268.466 74.2604 270.484 73.8047V73.6094L267.652 73.3164C265.569 73.4466 264.527 73.6419 264.527 73.9023ZM293.238 74.0977C293.303 74.3581 293.629 74.4883 294.215 74.4883H296.168L296.852 74.293V74.0977C296.852 73.9023 296.461 73.7396 295.68 73.6094C294.052 73.6745 293.238 73.8372 293.238 74.0977Z" fill="#104916"/>
</svg>
